<svg viewBox="0 0 680 430" width="100%" role="img" xmlns="http://www.w3.org/2000/svg">
<title>柏楚电子营收结构变化 2019-2026H1</title>
<desc>堆叠柱状图：2019至2023年按产品（随动/板卡/总线/切割头/其他），2024年起按解决方案（平面/管材/三维/其他）披露。</desc>
<line x1="46" y1="332.0" x2="664" y2="332.0" stroke="#D3D1C7" stroke-width="0.5"/>
<text x="41" y="335.0" font-size="9" fill="#5F5E5A" text-anchor="end">0</text>
<line x1="46" y1="265.6" x2="664" y2="265.6" stroke="#D3D1C7" stroke-width="0.5"/>
<text x="41" y="268.6" font-size="9" fill="#5F5E5A" text-anchor="end">5</text>
<line x1="46" y1="199.3" x2="664" y2="199.3" stroke="#D3D1C7" stroke-width="0.5"/>
<text x="41" y="202.3" font-size="9" fill="#5F5E5A" text-anchor="end">10</text>
<line x1="46" y1="132.9" x2="664" y2="132.9" stroke="#D3D1C7" stroke-width="0.5"/>
<text x="41" y="135.9" font-size="9" fill="#5F5E5A" text-anchor="end">15</text>
<line x1="46" y1="66.5" x2="664" y2="66.5" stroke="#D3D1C7" stroke-width="0.5"/>
<text x="41" y="69.5" font-size="9" fill="#5F5E5A" text-anchor="end">20</text>
<text x="46" y="24" font-size="9" fill="#5F5E5A">营业收入（亿元）</text>
<text x="46" y="12" font-size="10" fill="#2C2C2A">2019-2023 按产品口径</text>
<text x="392" y="12" font-size="10" fill="#2C2C2A">2024-2026H1 按解决方案口径</text>
<line x1="374" y1="20" x2="374" y2="392" stroke="#888780" stroke-width="0.6" stroke-dasharray="4 3"/>
<text x="374" y="404" font-size="9" fill="#854F0B" text-anchor="middle">2024 起披露口径变更：切割头并入各解决方案线</text>
<rect x="52.0" y="310.2" width="40" height="21.8" fill="#B5D4F4" stroke="#FFFFFF" stroke-width="0.6"/>
<rect x="52.0" y="290.1" width="40" height="20.1" fill="#9FE1CB" stroke="#FFFFFF" stroke-width="0.6"/>
<rect x="52.0" y="286.9" width="40" height="3.2" fill="#CECBF6" stroke="#FFFFFF" stroke-width="0.6"/>
<rect x="52.0" y="282.1" width="40" height="4.8" fill="#B4B2A9" stroke="#FFFFFF" stroke-width="0.6"/>
<text x="72.0" y="278.1" font-size="9" fill="#444441" text-anchor="middle">3.76</text>
<text x="72.0" y="344.0" font-size="9.5" fill="#5F5E5A" text-anchor="middle">2019</text>
<rect x="112.0" y="302.8" width="40" height="29.2" fill="#B5D4F4" stroke="#FFFFFF" stroke-width="0.6"/>
<rect x="112.0" y="274.8" width="40" height="27.9" fill="#9FE1CB" stroke="#FFFFFF" stroke-width="0.6"/>
<rect x="112.0" y="265.5" width="40" height="9.4" fill="#CECBF6" stroke="#FFFFFF" stroke-width="0.6"/>
<rect x="112.0" y="256.2" width="40" height="9.2" fill="#B4B2A9" stroke="#FFFFFF" stroke-width="0.6"/>
<text x="132.0" y="252.2" font-size="9" fill="#444441" text-anchor="middle">5.71</text>
<text x="132.0" y="344.0" font-size="9.5" fill="#5F5E5A" text-anchor="middle">2020</text>
<rect x="172.0" y="292.2" width="40" height="39.8" fill="#B5D4F4" stroke="#FFFFFF" stroke-width="0.6"/>
<rect x="172.0" y="253.8" width="40" height="38.4" fill="#9FE1CB" stroke="#FFFFFF" stroke-width="0.6"/>
<rect x="172.0" y="235.1" width="40" height="18.6" fill="#CECBF6" stroke="#FFFFFF" stroke-width="0.6"/>
<rect x="172.0" y="210.8" width="40" height="24.3" fill="#B4B2A9" stroke="#FFFFFF" stroke-width="0.6"/>
<text x="192.0" y="206.8" font-size="9" fill="#444441" text-anchor="middle">9.13</text>
<text x="192.0" y="344.0" font-size="9.5" fill="#5F5E5A" text-anchor="middle">2021</text>
<rect x="232.0" y="303.5" width="40" height="28.5" fill="#B5D4F4" stroke="#FFFFFF" stroke-width="0.6"/>
<rect x="232.0" y="274.4" width="40" height="29.1" fill="#9FE1CB" stroke="#FFFFFF" stroke-width="0.6"/>
<rect x="232.0" y="255.7" width="40" height="18.7" fill="#CECBF6" stroke="#FFFFFF" stroke-width="0.6"/>
<rect x="232.0" y="215.0" width="40" height="40.7" fill="#B4B2A9" stroke="#FFFFFF" stroke-width="0.6"/>
<text x="252.0" y="211.0" font-size="9" fill="#444441" text-anchor="middle">8.81</text>
<text x="252.0" y="344.0" font-size="9.5" fill="#5F5E5A" text-anchor="middle">2022</text>
<rect x="292.0" y="309.4" width="40" height="22.6" fill="#B5D4F4" stroke="#FFFFFF" stroke-width="0.6"/>
<rect x="292.0" y="259.8" width="40" height="49.6" fill="#9FE1CB" stroke="#FFFFFF" stroke-width="0.6"/>
<rect x="292.0" y="216.4" width="40" height="43.4" fill="#CECBF6" stroke="#FFFFFF" stroke-width="0.6"/>
<rect x="292.0" y="172.0" width="40" height="44.4" fill="#FAC775" stroke="#FFFFFF" stroke-width="0.6"/>
<rect x="292.0" y="146.7" width="40" height="25.2" fill="#B4B2A9" stroke="#FFFFFF" stroke-width="0.6"/>
<text x="312.0" y="142.7" font-size="9" fill="#444441" text-anchor="middle">13.96</text>
<text x="312.0" y="344.0" font-size="9.5" fill="#5F5E5A" text-anchor="middle">2023</text>
<rect x="410.0" y="182.7" width="44" height="149.3" fill="#B5D4F4" stroke="#FFFFFF" stroke-width="0.6"/>
<rect x="410.0" y="132.2" width="44" height="50.5" fill="#9FE1CB" stroke="#FFFFFF" stroke-width="0.6"/>
<rect x="410.0" y="127.4" width="44" height="4.9" fill="#CECBF6" stroke="#FFFFFF" stroke-width="0.6"/>
<rect x="410.0" y="104.0" width="44" height="23.4" fill="#B4B2A9" stroke="#FFFFFF" stroke-width="0.6"/>
<text x="432.0" y="100.0" font-size="9" fill="#444441" text-anchor="middle">17.18</text>
<text x="432.0" y="344.0" font-size="9.5" fill="#5F5E5A" text-anchor="middle">2024</text>
<rect x="472.0" y="160.4" width="44" height="171.6" fill="#B5D4F4" stroke="#FFFFFF" stroke-width="0.6"/>
<rect x="472.0" y="95.7" width="44" height="64.7" fill="#9FE1CB" stroke="#FFFFFF" stroke-width="0.6"/>
<rect x="472.0" y="87.2" width="44" height="8.5" fill="#CECBF6" stroke="#FFFFFF" stroke-width="0.6"/>
<rect x="472.0" y="44.4" width="44" height="42.8" fill="#B4B2A9" stroke="#FFFFFF" stroke-width="0.6"/>
<text x="494.0" y="40.4" font-size="9" fill="#444441" text-anchor="middle">21.67</text>
<text x="494.0" y="344.0" font-size="9.5" fill="#5F5E5A" text-anchor="middle">2025</text>
<rect x="534.0" y="242.1" width="44" height="89.9" fill="#B5D4F4" stroke="#FFFFFF" stroke-width="0.6"/>
<rect x="534.0" y="210.7" width="44" height="31.4" fill="#9FE1CB" stroke="#FFFFFF" stroke-width="0.6"/>
<rect x="534.0" y="206.2" width="44" height="4.6" fill="#CECBF6" stroke="#FFFFFF" stroke-width="0.6"/>
<rect x="534.0" y="185.5" width="44" height="20.6" fill="#B4B2A9" stroke="#FFFFFF" stroke-width="0.6"/>
<text x="556.0" y="181.5" font-size="9" fill="#444441" text-anchor="middle">11.03</text>
<text x="556.0" y="344.0" font-size="9.5" fill="#5F5E5A" text-anchor="middle">25H1</text>
<rect x="596.0" y="238.2" width="44" height="93.8" fill="#B5D4F4" stroke="#FFFFFF" stroke-width="0.6"/>
<rect x="596.0" y="201.0" width="44" height="37.1" fill="#9FE1CB" stroke="#FFFFFF" stroke-width="0.6"/>
<rect x="596.0" y="196.3" width="44" height="4.7" fill="#CECBF6" stroke="#FFFFFF" stroke-width="0.6"/>
<rect x="596.0" y="162.3" width="44" height="34.0" fill="#B4B2A9" stroke="#FFFFFF" stroke-width="0.6"/>
<text x="618.0" y="158.3" font-size="9" fill="#444441" text-anchor="middle">12.78</text>
<text x="618.0" y="344.0" font-size="9.5" fill="#5F5E5A" text-anchor="middle">26H1</text>
<rect x="46" y="365" width="9" height="9" fill="#B5D4F4" stroke="#888780" stroke-width="0.4"/>
<text x="58" y="373" font-size="9" fill="#444441">随动系统</text>
<rect x="101.6" y="365" width="9" height="9" fill="#9FE1CB" stroke="#888780" stroke-width="0.4"/>
<text x="113.6" y="373" font-size="9" fill="#444441">板卡系统</text>
<rect x="157.2" y="365" width="9" height="9" fill="#CECBF6" stroke="#888780" stroke-width="0.4"/>
<text x="169.2" y="373" font-size="9" fill="#444441">总线系统</text>
<rect x="46" y="381" width="9" height="9" fill="#FAC775" stroke="#888780" stroke-width="0.4"/>
<text x="58" y="389" font-size="9" fill="#444441">切割头（23 年单独拆出）</text>
<rect x="177.2" y="381" width="9" height="9" fill="#B4B2A9" stroke="#888780" stroke-width="0.4"/>
<text x="189.2" y="389" font-size="9" fill="#444441">其他</text>
<rect x="392" y="365" width="9" height="9" fill="#B5D4F4" stroke="#888780" stroke-width="0.4"/>
<text x="404" y="373" font-size="9" fill="#444441">平面解决方案</text>
<rect x="464.4" y="365" width="9" height="9" fill="#9FE1CB" stroke="#888780" stroke-width="0.4"/>
<text x="476.4" y="373" font-size="9" fill="#444441">管材解决方案</text>
<rect x="392" y="381" width="9" height="9" fill="#CECBF6" stroke="#888780" stroke-width="0.4"/>
<text x="404" y="389" font-size="9" fill="#444441">三维解决方案</text>
<rect x="464.4" y="381" width="9" height="9" fill="#B4B2A9" stroke="#888780" stroke-width="0.4"/>
<text x="476.4" y="389" font-size="9" fill="#444441">其他（含智能切割头等硬件）</text>
</svg>