<svg viewBox="0 0 680 436" width="100%" role="img" xmlns="http://www.w3.org/2000/svg">
<title>宝信软件月收盘价与2444阶段划分（2022-06 至 2026-09）</title>
<desc>前复权月收盘折线，按预期定价、高位震荡、杀业绩、低位待确认四个阶段着色；标注2023年6月顶43.58元与2026年6月低15.99元，以及两次财报披露日。</desc>
<text x="20" y="20" font-size="14" font-weight="500" fill="#2C2C2A">宝信软件（600845）月收盘价 · 前复权 · 2444 视角位置</text>
<text x="20" y="38" font-size="11" fill="#888780">数据：data/600845.db kline（qfq）｜截至 2026-09-24｜阶段划分为本项目分析层整理</text>
<rect x="40.6" y="60" width="151.4" height="250" fill="#F1EFE8" opacity="0.75"/>
<text x="116.3" y="74" font-size="11" fill="#5F5E5A" text-anchor="middle">① 预期定价：业绩平、股价冲顶</text>
<line x1="40.6" y1="60" x2="40.6" y2="310" stroke="#B4B2A9" stroke-width="0.5" stroke-dasharray="3 3"/>
<rect x="192.0" y="60" width="220.8" height="250" fill="#FAEEDA" opacity="0.75"/>
<text x="302.4" y="74" font-size="11" fill="#5F5E5A" text-anchor="middle">② 高位震荡：业绩见顶、估值先杀</text>
<line x1="192.0" y1="60" x2="192.0" y2="310" stroke="#B4B2A9" stroke-width="0.5" stroke-dasharray="3 3"/>
<rect x="412.8" y="60" width="214.9" height="250" fill="#FCEBEB" opacity="0.75"/>
<text x="520.2" y="74" font-size="11" fill="#5F5E5A" text-anchor="middle">③ 杀业绩：营收 -19.6% / 扣非 -42%</text>
<line x1="412.8" y1="60" x2="412.8" y2="310" stroke="#B4B2A9" stroke-width="0.5" stroke-dasharray="3 3"/>
<rect x="627.7" y="60" width="34.3" height="250" fill="#EAF3DE" opacity="0.75"/>
<text x="662.0" y="74" font-size="11" fill="#5F5E5A" text-anchor="end">④ 低位待确认</text>
<line x1="627.7" y1="60" x2="627.7" y2="310" stroke="#B4B2A9" stroke-width="0.5" stroke-dasharray="3 3"/>
<line x1="52" y1="302.2" x2="662" y2="302.2" stroke="#D3D1C7" stroke-width="0.5"/>
<text x="46" y="306.2" font-size="11" fill="#5F5E5A" text-anchor="end">15</text>
<line x1="52" y1="263.1" x2="662" y2="263.1" stroke="#D3D1C7" stroke-width="0.5"/>
<text x="46" y="267.1" font-size="11" fill="#5F5E5A" text-anchor="end">20</text>
<line x1="52" y1="224.1" x2="662" y2="224.1" stroke="#D3D1C7" stroke-width="0.5"/>
<text x="46" y="228.1" font-size="11" fill="#5F5E5A" text-anchor="end">25</text>
<line x1="52" y1="185.0" x2="662" y2="185.0" stroke="#D3D1C7" stroke-width="0.5"/>
<text x="46" y="189.0" font-size="11" fill="#5F5E5A" text-anchor="end">30</text>
<line x1="52" y1="145.9" x2="662" y2="145.9" stroke="#D3D1C7" stroke-width="0.5"/>
<text x="46" y="149.9" font-size="11" fill="#5F5E5A" text-anchor="end">35</text>
<line x1="52" y1="106.9" x2="662" y2="106.9" stroke="#D3D1C7" stroke-width="0.5"/>
<text x="46" y="110.9" font-size="11" fill="#5F5E5A" text-anchor="end">40</text>
<line x1="52" y1="67.8" x2="662" y2="67.8" stroke="#D3D1C7" stroke-width="0.5"/>
<text x="46" y="71.8" font-size="11" fill="#5F5E5A" text-anchor="end">45</text>
<line x1="52" y1="310" x2="662" y2="310" stroke="#888780" stroke-width="0.9"/>
<polyline points="52.0,211.4 63.4,216.6 76.4,227.6 88.3,233.8 100.5,205.8 112.3,220.6 124.2,193.3 136.8,167.0 147.8,169.6 160.0,125.7 171.1,146.9 184.1,151.8 195.9,107.1 208.1,124.2 220.4,124.8 231.4,141.7 244.4,157.1 256.3,161.2 267.7,119.5 280.7,167.4 292.1,131.7 303.6,186.1 316.2,167.2 328.4,176.3 339.5,178.1 352.5,176.6 364.3,198.1 376.5,170.1 388.7,216.2 400.2,207.7 412.8,198.3 423.4,201.2 436.1,172.3 448.3,189.0 460.1,216.8 471.9,229.8 484.2,236.6 496.4,228.0 507.8,223.5 520.4,239.8 532.7,241.5 543.7,254.2 556.7,259.1 568.5,242.5 579.6,232.3 592.2,241.4 604.0,243.9 615.5,262.0 628.1,289.5 640.3,274.1 652.5,281.5 662.0,276.7" fill="none" stroke="#185FA5" stroke-width="1.5"/>
<line x1="124.9" y1="60" x2="124.9" y2="310.0" stroke="#D3D1C7" stroke-width="0.4"/>
<text x="128.9" y="304.0" font-size="11" fill="#888780">2023</text>
<line x1="268.9" y1="60" x2="268.9" y2="310.0" stroke="#D3D1C7" stroke-width="0.4"/>
<text x="272.9" y="304.0" font-size="11" fill="#888780">2024</text>
<line x1="413.2" y1="60" x2="413.2" y2="310.0" stroke="#D3D1C7" stroke-width="0.4"/>
<text x="417.2" y="304.0" font-size="11" fill="#888780">2025</text>
<line x1="557.1" y1="60" x2="557.1" y2="310.0" stroke="#D3D1C7" stroke-width="0.4"/>
<text x="561.1" y="304.0" font-size="11" fill="#888780">2026</text>
<circle cx="192.0" cy="78.9" r="3.2" fill="#A32D2D"/>
<text x="184.0" y="94.9" font-size="11" fill="#A32D2D" text-anchor="end">顶 43.58（2023-06-20）</text>
<circle cx="627.7" cy="294.5" r="3.2" fill="#0F6E56"/>
<text x="619.7" y="314.5" font-size="11" fill="#0F6E56" text-anchor="end">低 15.99（2026-06-29）</text>
<circle cx="662.0" cy="276.7" r="3.2" fill="#0C447C"/>
<text x="666.0" y="268.7" font-size="11" fill="#0C447C" text-anchor="end">现 18.26</text>
<line x1="604.0" y1="310" x2="604.0" y2="326.0" stroke="#854F0B" stroke-width="0.9"/>
<text x="618.0" y="340.0" font-size="11" fill="#854F0B" text-anchor="end">4/30 年报+一季报</text>
<line x1="648.2" y1="310" x2="648.2" y2="326.0" stroke="#854F0B" stroke-width="0.9"/>
<text x="662.0" y="354.0" font-size="11" fill="#854F0B" text-anchor="end">8/20 中报</text>
<text x="436.5" y="289.7" font-size="11" fill="#A32D2D" text-anchor="middle">↓ 自 2023-06 顶累计 -63%</text>
<line x1="52" y1="380.0" x2="662" y2="380.0" stroke="#B4B2A9" stroke-width="0.5"/>
<text x="52" y="396.0" font-size="11" fill="#5F5E5A">④ 段：15.99（2026-06-29）低于 2021-11 低点 18.52，跌破三年箱体，现价较之 +14%</text>
<text x="52" y="412.0" font-size="11" fill="#854F0B">橙线：4/30 年报+一季报；8/20 中报（当日 +0.80%、其后续跌）—— 市场未认这份单季改善</text>
<text x="52" y="428.0" font-size="11" fill="#5F5E5A">按里海「底部是走出来的」：尚无长期横盘与筹码充分交换，④ 只能记「低位待确认」，不是底部</text>
</svg>